# xmcd CD database file
# Copyright (C) 1997 Ti Kan
# 
# Track frame offsets:
#     150
#     13045
#     30055
#     49300
#     60645
#     79587
#     90142
#     101930
#     121072
#     137442
#     158435
#     173210
#     187120
#     199615
# 
# Disc length: 2916 seconds
# 
# Revision: 1
# Processed by: cddbd v1.4b41PL1 Copyright (c) Steve Scherf et al.
# Submitted via: DiscPlay 4.0.4
# 
DISCID=a10b620e
DTITLE=Various Artist - Outlaws And Heros
DYEAR=1900
DGENRE=
TTITLE0=Dumas Walker
TTITLE1=Honey (Open That Door)
TTITLE2=Tear Stained Letter
TTITLE3=Louisiana Woman, Mississippi Man
TTITLE4=Mountain Music
TTITLE5=Cry Cry Cry
TTITLE6=Ring of Fire
TTITLE7=Many A Long And Lonesome Highway
TTITLE8=Swinging On A Star
TTITLE9=They Rage On
TTITLE10=Cathy's Clown
TTITLE11=There You Are
TTITLE12=Crying
TTITLE13='Cause Cheap Is How I Feel
EXTD=
EXTT0=The Kentucky Headhunters\n
EXTT1=Ricky Scaggs\n
EXTT2=Jo El Sonnier\n
EXTT3=Loretta Lynn and Conway Twitty\n
EXTT4=Alabama\n
EXTT5=Marty Stewart\n
EXTT6=Johnny Cash\n
EXTT7=Rodney Crowell\n
EXTT8=Murray McLauchlan\n
EXTT9=Dan Seals\n
EXTT10=Reba McEntire\n
EXTT11=Willie Nelson\n
EXTT12=Roy Orbison\n
EXTT13=Cowboy Junkies\n
PLAYORDER=
